<?xml version="1.0" standalone="no"?>
<!DOCTYPE svg PUBLIC "-//W3C//DTD SVG 20010904//EN"
 "http://www.w3.org/TR/2001/REC-SVG-20010904/DTD/svg10.dtd">
<svg version="1.0" xmlns="http://www.w3.org/2000/svg"
 width="512.000000pt" height="512.000000pt" viewBox="0 0 512.000000 512.000000"
 preserveAspectRatio="xMidYMid meet">
<metadata>
Created by potrace 1.14, written by Peter Selinger 2001-2017
</metadata>
<g transform="translate(0.000000,512.000000) scale(0.100000,-0.100000)"
fill="#000000" stroke="none">
<path d="M0 2560 l0 -2560 2560 0 2560 0 0 2560 0 2560 -2560 0 -2560 0 0
-2560z m2590 -540 c16 -16 18 -25 10 -40 -5 -10 -15 -22 -20 -25 -20 -12 -9
-45 21 -67 22 -16 50 -63 94 -153 115 -236 139 -341 139 -615 0 -506 -157
-779 -499 -865 -86 -22 -119 -25 -280 -25 -195 0 -242 8 -250 43 -3 12 -6 303
-8 647 -2 580 -4 628 -21 673 -18 47 -18 48 3 97 16 37 21 69 21 133 0 69 3
87 19 101 19 18 109 35 176 35 73 -1 428 21 449 27 12 4 37 17 56 30 42 29 64
30 90 4z m1373 -75 c34 -10 71 -13 122 -8 72 6 74 5 104 -25 42 -42 42 -80 0
-89 -17 -3 -33 -11 -35 -18 -3 -6 7 -36 21 -66 29 -63 31 -114 10 -244 -29
-180 -71 -277 -138 -324 -50 -34 -97 -91 -97 -118 0 -11 16 -35 36 -54 70 -67
101 -142 139 -332 13 -65 30 -128 39 -140 52 -71 49 -61 36 -150 -16 -112 -17
-113 -51 -128 -17 -7 -49 -27 -71 -46 -50 -41 -78 -42 -106 -3 -13 16 -37 36
-55 43 -18 8 -38 21 -45 29 -15 19 -53 185 -57 253 -3 51 -22 137 -56 256 -15
52 -27 74 -58 102 -48 44 -112 58 -142 31 -18 -16 -19 -33 -19 -327 0 -275 -2
-313 -17 -329 -14 -16 -33 -18 -145 -18 -115 0 -130 2 -148 20 -20 20 -21 31
-19 623 1 576 0 605 -20 672 -20 69 -20 70 0 114 14 33 19 66 19 141 0 106 7
122 63 135 102 26 604 26 690 0z m-2930 -1 c25 -8 51 -21 56 -28 6 -7 21 -63
35 -125 14 -69 31 -124 45 -142 12 -16 24 -43 27 -61 3 -18 10 -50 16 -70 8
-28 8 -48 0 -77 -13 -41 -21 9 122 -726 24 -126 54 -271 66 -322 37 -153 23
-167 -156 -156 -63 3 -121 11 -130 18 -10 7 -25 55 -39 126 -29 141 -48 192
-87 224 -27 23 -37 25 -138 25 -118 0 -126 -3 -136 -61 -8 -47 -25 -89 -35
-89 -5 0 -9 -25 -9 -55 0 -71 -17 -150 -37 -166 -27 -23 -113 -48 -146 -43
-17 3 -52 -2 -76 -10 -78 -28 -96 -23 -162 47 -32 34 -61 70 -64 79 -14 41 42
77 72 47 24 -24 46 -4 63 56 10 33 34 96 53 140 58 130 224 917 211 998 -5 31
-1 46 24 85 21 32 37 78 51 146 12 55 21 103 21 108 0 4 9 17 20 28 18 18 33
20 153 20 95 0 147 -5 180 -16z"/>
<path d="M2156 1689 l-26 -31 1 -406 c0 -304 4 -416 13 -442 11 -29 11 -42 0
-74 -8 -21 -14 -74 -14 -117 0 -93 11 -109 73 -108 76 1 134 34 181 104 39 58
31 120 -23 169 -31 28 -27 46 12 46 29 0 38 7 70 53 33 47 38 64 46 145 10 95
-7 327 -29 402 -5 19 -10 46 -11 60 -1 41 -87 140 -164 188 -38 23 -77 42 -86
42 -10 0 -29 -14 -43 -31z"/>
<path d="M1939 1454 c-12 -14 -11 -16 5 -13 11 2 21 10 24 17 5 17 -13 15 -29
-4z"/>
<path d="M1920 965 c-29 -35 21 -93 55 -65 22 18 18 47 -7 64 -28 20 -32 20
-48 1z"/>
<path d="M2550 610 c0 -11 7 -20 15 -20 8 0 15 9 15 20 0 11 -7 20 -15 20 -8
0 -15 -9 -15 -20z"/>
<path d="M3880 1745 c-8 -9 -27 -22 -44 -30 -26 -11 -28 -14 -13 -20 40 -17
124 19 114 49 -6 18 -43 18 -57 1z"/>
<path d="M3561 1691 c-24 -24 -24 -28 -21 -281 1 -117 6 -179 13 -187 7 -7 43
-13 82 -14 69 -2 69 -2 105 38 56 63 66 88 52 126 -11 28 -9 35 13 67 14 20
25 49 25 66 0 33 -32 109 -58 137 -27 30 -89 58 -141 64 -41 5 -52 2 -70 -16z"/>
<path d="M3307 1163 c-13 -12 -7 -23 13 -23 11 0 20 7 20 15 0 15 -21 21 -33
8z"/>
<path d="M3407 364 c-28 -28 17 -73 54 -54 32 17 22 54 -16 58 -17 2 -34 0
-38 -4z"/>
<path d="M725 1774 c-32 -33 5 -70 44 -45 12 8 13 14 3 35 -13 30 -24 32 -47
10z"/>
<path d="M864 1497 c-9 -25 0 -62 16 -62 10 0 15 10 15 34 0 36 -21 54 -31 28z"/>
<path d="M1026 1458 c-17 -24 -11 -41 24 -73 22 -19 22 -19 36 0 8 10 14 31
14 45 0 50 -46 68 -74 28z"/>
<path d="M867 1315 c-9 -8 -18 -44 -22 -82 -3 -38 -22 -116 -41 -175 -19 -59
-34 -114 -34 -122 0 -30 42 -46 117 -46 69 0 103 13 103 41 0 15 -39 258 -51
316 -15 74 -42 99 -72 68z"/>
</g>
</svg>
